{
    "asset" : {
        "generator" : "Khronos glTF Blender I/O v1.6.16",
        "version" : "2.0"
    },
    "scene" : 0,
    "scenes" : [
        {
            "name" : "Scene",
            "nodes" : [
                1
            ]
        }
    ],
    "nodes" : [
        {
            "mesh" : 0,
            "name" : "grand_arbre3_LOD0",
            "rotation" : [
                -0.7071068286895752,
                0,
                0,
                0.7071067094802856
            ],
            "scale" : [
                1.9146044254302979,
                1.9146044254302979,
                1.9146044254302979
            ]
        },
        {
            "children" : [
                0
            ],
            "name" : "grand_arbre3_group",
            "rotation" : [
                0.7071068286895752,
                0,
                0,
                0.7071067094802856
            ],
            "scale" : [
                0.08733764290809631,
                0.08733764290809631,
                0.08733764290809631
            ]
        }
    ],
    "materials" : [
        {
            "doubleSided" : true,
            "name" : "rouge_lod0",
            "pbrMetallicRoughness" : {
                "baseColorFactor" : [
                    0.8000000715255737,
                    0,
                    0.006208333652466536,
                    1
                ],
                "metallicFactor" : 0,
                "roughnessFactor" : 0.5
            }
        }
    ],
    "meshes" : [
        {
            "name" : "Mesh.004",
            "primitives" : [
                {
                    "attributes" : {
                        "POSITION" : 0,
                        "NORMAL" : 1,
                        "TEXCOORD_0" : 2,
                        "TEXCOORD_1" : 3,
                        "TEXCOORD_2" : 4,
                        "COLOR_0" : 5
                    },
                    "indices" : 6,
                    "material" : 0
                }
            ]
        }
    ],
    "accessors" : [
        {
            "bufferView" : 0,
            "componentType" : 5126,
            "count" : 37018,
            "max" : [
                54.30509948730469,
                145.55223083496094,
                52.86809158325195
            ],
            "min" : [
                -59.1860237121582,
                -0.0696307122707367,
                -63.020347595214844
            ],
            "type" : "VEC3"
        },
        {
            "bufferView" : 1,
            "componentType" : 5126,
            "count" : 37018,
            "type" : "VEC3"
        },
        {
            "bufferView" : 2,
            "componentType" : 5126,
            "count" : 37018,
            "type" : "VEC2"
        },
        {
            "bufferView" : 3,
            "componentType" : 5126,
            "count" : 37018,
            "type" : "VEC2"
        },
        {
            "bufferView" : 4,
            "componentType" : 5126,
            "count" : 37018,
            "type" : "VEC2"
        },
        {
            "bufferView" : 5,
            "componentType" : 5123,
            "count" : 37018,
            "normalized" : true,
            "type" : "VEC4"
        },
        {
            "bufferView" : 6,
            "componentType" : 5123,
            "count" : 177726,
            "type" : "SCALAR"
        }
    ],
    "bufferViews" : [
        {
            "buffer" : 0,
            "byteLength" : 444216,
            "byteOffset" : 0
        },
        {
            "buffer" : 0,
            "byteLength" : 444216,
            "byteOffset" : 444216
        },
        {
            "buffer" : 0,
            "byteLength" : 296144,
            "byteOffset" : 888432
        },
        {
            "buffer" : 0,
            "byteLength" : 296144,
            "byteOffset" : 1184576
        },
        {
            "buffer" : 0,
            "byteLength" : 296144,
            "byteOffset" : 1480720
        },
        {
            "buffer" : 0,
            "byteLength" : 296144,
            "byteOffset" : 1776864
        },
        {
            "buffer" : 0,
            "byteLength" : 355452,
            "byteOffset" : 2073008
        }
    ],
    "buffers" : [
        {
            "byteLength" : 2428460,
            "uri" : "data:application/octet-stream;base64,"
        }
    ]
}
