{
    "asset" : {
        "generator" : "Khronos glTF Blender I/O v1.6.16",
        "version" : "2.0"
    },
    "scene" : 0,
    "scenes" : [
        {
            "name" : "Scene",
            "nodes" : [
                1
            ]
        }
    ],
    "nodes" : [
        {
            "mesh" : 0,
            "name" : "grand_arbre3_LOD1",
            "rotation" : [
                -0.7071068286895752,
                0,
                0,
                0.7071067094802856
            ],
            "scale" : [
                1.9146044254302979,
                1.9146044254302979,
                1.9146044254302979
            ]
        },
        {
            "children" : [
                0
            ],
            "name" : "grand_arbre3_group",
            "rotation" : [
                0.7071068286895752,
                0,
                0,
                0.7071067094802856
            ],
            "scale" : [
                0.08733764290809631,
                0.08733764290809631,
                0.08733764290809631
            ]
        }
    ],
    "materials" : [
        {
            "doubleSided" : true,
            "name" : "LOD1_orange",
            "pbrMetallicRoughness" : {
                "baseColorFactor" : [
                    0.5,
                    0.22247685492038727,
                    0,
                    1
                ],
                "metallicFactor" : 0,
                "roughnessFactor" : 0.5527864098548889
            }
        }
    ],
    "meshes" : [
        {
            "name" : "Mesh.005",
            "primitives" : [
                {
                    "attributes" : {
                        "POSITION" : 0,
                        "NORMAL" : 1,
                        "TEXCOORD_0" : 2,
                        "TEXCOORD_1" : 3,
                        "TEXCOORD_2" : 4,
                        "COLOR_0" : 5
                    },
                    "indices" : 6,
                    "material" : 0
                }
            ]
        }
    ],
    "accessors" : [
        {
            "bufferView" : 0,
            "componentType" : 5126,
            "count" : 21529,
            "max" : [
                54.30509948730469,
                133.79205322265625,
                51.53058624267578
            ],
            "min" : [
                -59.1860237121582,
                -0.058034997433423996,
                -63.020347595214844
            ],
            "type" : "VEC3"
        },
        {
            "bufferView" : 1,
            "componentType" : 5126,
            "count" : 21529,
            "type" : "VEC3"
        },
        {
            "bufferView" : 2,
            "componentType" : 5126,
            "count" : 21529,
            "type" : "VEC2"
        },
        {
            "bufferView" : 3,
            "componentType" : 5126,
            "count" : 21529,
            "type" : "VEC2"
        },
        {
            "bufferView" : 4,
            "componentType" : 5126,
            "count" : 21529,
            "type" : "VEC2"
        },
        {
            "bufferView" : 5,
            "componentType" : 5123,
            "count" : 21529,
            "normalized" : true,
            "type" : "VEC4"
        },
        {
            "bufferView" : 6,
            "componentType" : 5123,
            "count" : 109077,
            "type" : "SCALAR"
        }
    ],
    "bufferViews" : [
        {
            "buffer" : 0,
            "byteLength" : 258348,
            "byteOffset" : 0
        },
        {
            "buffer" : 0,
            "byteLength" : 258348,
            "byteOffset" : 258348
        },
        {
            "buffer" : 0,
            "byteLength" : 172232,
            "byteOffset" : 516696
        },
        {
            "buffer" : 0,
            "byteLength" : 172232,
            "byteOffset" : 688928
        },
        {
            "buffer" : 0,
            "byteLength" : 172232,
            "byteOffset" : 861160
        },
        {
            "buffer" : 0,
            "byteLength" : 172232,
            "byteOffset" : 1033392
        },
        {
            "buffer" : 0,
            "byteLength" : 218154,
            "byteOffset" : 1205624
        }
    ],
    "buffers" : [
        {
            "byteLength" : 1423780,
            "uri" : "data:application/octet-stream;base64,"
        }
    ]
}
