{
    "asset" : {
        "generator" : "Khronos glTF Blender I/O v1.6.16",
        "version" : "2.0"
    },
    "scene" : 0,
    "scenes" : [
        {
            "name" : "Scene",
            "nodes" : [
                1
            ]
        }
    ],
    "nodes" : [
        {
            "mesh" : 0,
            "name" : "grand_arbre3_LOD2",
            "rotation" : [
                -0.7071068286895752,
                0,
                0,
                0.7071067094802856
            ],
            "scale" : [
                1.9146044254302979,
                1.9146044254302979,
                1.9146044254302979
            ]
        },
        {
            "children" : [
                0
            ],
            "name" : "grand_arbre3_group",
            "rotation" : [
                0.7071068286895752,
                0,
                0,
                0.7071067094802856
            ],
            "scale" : [
                0.08733764290809631,
                0.08733764290809631,
                0.08733764290809631
            ]
        }
    ],
    "materials" : [
        {
            "doubleSided" : true,
            "name" : "LOD_2_Vert",
            "pbrMetallicRoughness" : {
                "baseColorFactor" : [
                    0,
                    0.8000000715255737,
                    0.0021280322689563036,
                    1
                ],
                "metallicFactor" : 0,
                "roughnessFactor" : 0.5
            }
        }
    ],
    "meshes" : [
        {
            "name" : "Mesh.006",
            "primitives" : [
                {
                    "attributes" : {
                        "POSITION" : 0,
                        "NORMAL" : 1,
                        "TEXCOORD_0" : 2,
                        "TEXCOORD_1" : 3,
                        "TEXCOORD_2" : 4,
                        "COLOR_0" : 5
                    },
                    "indices" : 6,
                    "material" : 0
                }
            ]
        }
    ],
    "accessors" : [
        {
            "bufferView" : 0,
            "componentType" : 5126,
            "count" : 10881,
            "max" : [
                35.581756591796875,
                128.7117462158203,
                40.318199157714844
            ],
            "min" : [
                -38.283447265625,
                -0.08503732085227966,
                -41.962066650390625
            ],
            "type" : "VEC3"
        },
        {
            "bufferView" : 1,
            "componentType" : 5126,
            "count" : 10881,
            "type" : "VEC3"
        },
        {
            "bufferView" : 2,
            "componentType" : 5126,
            "count" : 10881,
            "type" : "VEC2"
        },
        {
            "bufferView" : 3,
            "componentType" : 5126,
            "count" : 10881,
            "type" : "VEC2"
        },
        {
            "bufferView" : 4,
            "componentType" : 5126,
            "count" : 10881,
            "type" : "VEC2"
        },
        {
            "bufferView" : 5,
            "componentType" : 5123,
            "count" : 10881,
            "normalized" : true,
            "type" : "VEC4"
        },
        {
            "bufferView" : 6,
            "componentType" : 5123,
            "count" : 59178,
            "type" : "SCALAR"
        }
    ],
    "bufferViews" : [
        {
            "buffer" : 0,
            "byteLength" : 130572,
            "byteOffset" : 0
        },
        {
            "buffer" : 0,
            "byteLength" : 130572,
            "byteOffset" : 130572
        },
        {
            "buffer" : 0,
            "byteLength" : 87048,
            "byteOffset" : 261144
        },
        {
            "buffer" : 0,
            "byteLength" : 87048,
            "byteOffset" : 348192
        },
        {
            "buffer" : 0,
            "byteLength" : 87048,
            "byteOffset" : 435240
        },
        {
            "buffer" : 0,
            "byteLength" : 87048,
            "byteOffset" : 522288
        },
        {
            "buffer" : 0,
            "byteLength" : 118356,
            "byteOffset" : 609336
        }
    ],
    "buffers" : [
        {
            "byteLength" : 727692,
            "uri" : "data:application/octet-stream;base64,"
        }
    ]
}
