{
    "asset" : {
        "generator" : "Khronos glTF Blender I/O v1.6.16",
        "version" : "2.0"
    },
    "scene" : 0,
    "scenes" : [
        {
            "name" : "Scene",
            "nodes" : [
                0
            ]
        }
    ],
    "nodes" : [
        {
            "mesh" : 0,
            "name" : "polySurface1.001",
            "rotation" : [
                0.7071068286895752,
                0,
                0,
                0.7071067094802856
            ],
            "scale" : [
                0.009999999776482582,
                0.009999999776482582,
                0.009999999776482582
            ]
        }
    ],
    "materials" : [
        {
            "doubleSided" : true,
            "name" : "LOD_2_Vert",
            "pbrMetallicRoughness" : {
                "baseColorFactor" : [
                    0,
                    0.8000000715255737,
                    0.0021280322689563036,
                    1
                ],
                "metallicFactor" : 0,
                "roughnessFactor" : 0.5
            }
        }
    ],
    "meshes" : [
        {
            "name" : "Mesh",
            "primitives" : [
                {
                    "attributes" : {
                        "POSITION" : 0,
                        "NORMAL" : 1,
                        "TEXCOORD_0" : 2,
                        "TEXCOORD_1" : 3,
                        "TEXCOORD_2" : 4,
                        "COLOR_0" : 5
                    },
                    "indices" : 6,
                    "material" : 0
                }
            ]
        }
    ],
    "accessors" : [
        {
            "bufferView" : 0,
            "componentType" : 5126,
            "count" : 5411,
            "max" : [
                586.9000244140625,
                643.8416137695312,
                1.421966791152954
            ],
            "min" : [
                -631.9395141601562,
                -676.8820190429688,
                -2104.06103515625
            ],
            "type" : "VEC3"
        },
        {
            "bufferView" : 1,
            "componentType" : 5126,
            "count" : 5411,
            "type" : "VEC3"
        },
        {
            "bufferView" : 2,
            "componentType" : 5126,
            "count" : 5411,
            "type" : "VEC2"
        },
        {
            "bufferView" : 3,
            "componentType" : 5126,
            "count" : 5411,
            "type" : "VEC2"
        },
        {
            "bufferView" : 4,
            "componentType" : 5126,
            "count" : 5411,
            "type" : "VEC2"
        },
        {
            "bufferView" : 5,
            "componentType" : 5123,
            "count" : 5411,
            "normalized" : true,
            "type" : "VEC4"
        },
        {
            "bufferView" : 6,
            "componentType" : 5123,
            "count" : 7341,
            "type" : "SCALAR"
        }
    ],
    "bufferViews" : [
        {
            "buffer" : 0,
            "byteLength" : 64932,
            "byteOffset" : 0
        },
        {
            "buffer" : 0,
            "byteLength" : 64932,
            "byteOffset" : 64932
        },
        {
            "buffer" : 0,
            "byteLength" : 43288,
            "byteOffset" : 129864
        },
        {
            "buffer" : 0,
            "byteLength" : 43288,
            "byteOffset" : 173152
        },
        {
            "buffer" : 0,
            "byteLength" : 43288,
            "byteOffset" : 216440
        },
        {
            "buffer" : 0,
            "byteLength" : 43288,
            "byteOffset" : 259728
        },
        {
            "buffer" : 0,
            "byteLength" : 14682,
            "byteOffset" : 303016
        }
    ],
    "buffers" : [
        {
            "byteLength" : 317700,
            "uri" : "data:application/octet-stream;base64,"
        }
    ]
}
