{
    "asset" : {
        "generator" : "Khronos glTF Blender I/O v1.6.16",
        "version" : "2.0"
    },
    "scene" : 0,
    "scenes" : [
        {
            "name" : "Scene",
            "nodes" : [
                0
            ]
        }
    ],
    "nodes" : [
        {
            "mesh" : 0,
            "name" : "LOD2"
        }
    ],
    "materials" : [
        {
            "doubleSided" : true,
            "name" : "LOD_2_mat",
            "pbrMetallicRoughness" : {
                "baseColorFactor" : [
                    0,
                    0.8000000715255737,
                    0.0030231021810323,
                    1
                ],
                "metallicFactor" : 0,
                "roughnessFactor" : 0.5
            }
        }
    ],
    "meshes" : [
        {
            "name" : "LOD2",
            "primitives" : [
                {
                    "attributes" : {
                        "POSITION" : 0,
                        "NORMAL" : 1,
                        "TEXCOORD_0" : 2
                    },
                    "indices" : 3,
                    "material" : 0
                }
            ]
        }
    ],
    "accessors" : [
        {
            "bufferView" : 0,
            "componentType" : 5126,
            "count" : 439,
            "max" : [
                1.09893798828125,
                1,
                1.425253987312317
            ],
            "min" : [
                -1.0919990539550781,
                -1,
                -1
            ],
            "type" : "VEC3"
        },
        {
            "bufferView" : 1,
            "componentType" : 5126,
            "count" : 439,
            "type" : "VEC3"
        },
        {
            "bufferView" : 2,
            "componentType" : 5126,
            "count" : 439,
            "type" : "VEC2"
        },
        {
            "bufferView" : 3,
            "componentType" : 5123,
            "count" : 2280,
            "type" : "SCALAR"
        }
    ],
    "bufferViews" : [
        {
            "buffer" : 0,
            "byteLength" : 5268,
            "byteOffset" : 0
        },
        {
            "buffer" : 0,
            "byteLength" : 5268,
            "byteOffset" : 5268
        },
        {
            "buffer" : 0,
            "byteLength" : 3512,
            "byteOffset" : 10536
        },
        {
            "buffer" : 0,
            "byteLength" : 4560,
            "byteOffset" : 14048
        }
    ],
    "buffers" : [
        {
            "byteLength" : 18608,
            "uri" : "Psphere_LOD_2.bin"
        }
    ]
}
