{
    "asset" : {
        "generator" : "Khronos glTF Blender I/O v1.6.16",
        "version" : "2.0"
    },
    "scene" : 0,
    "scenes" : [
        {
            "name" : "Scene",
            "nodes" : [
                0
            ]
        }
    ],
    "nodes" : [
        {
            "mesh" : 0,
            "name" : "LOD1"
        }
    ],
    "materials" : [
        {
            "doubleSided" : true,
            "name" : "LOD1_mat",
            "pbrMetallicRoughness" : {
                "baseColorFactor" : [
                    0.8000000715255737,
                    0.500535249710083,
                    0,
                    1
                ],
                "metallicFactor" : 0,
                "roughnessFactor" : 0.5
            }
        }
    ],
    "meshes" : [
        {
            "name" : "LOD1",
            "primitives" : [
                {
                    "attributes" : {
                        "POSITION" : 0,
                        "NORMAL" : 1,
                        "TEXCOORD_0" : 2
                    },
                    "indices" : 3,
                    "material" : 0
                }
            ]
        }
    ],
    "accessors" : [
        {
            "bufferView" : 0,
            "componentType" : 5126,
            "count" : 10199,
            "max" : [
                1.49282705783844,
                1.6971750259399414,
                2.0540969371795654
            ],
            "min" : [
                -1.3869609832763672,
                -1.5039387941360474,
                -1.5132321119308472
            ],
            "type" : "VEC3"
        },
        {
            "bufferView" : 1,
            "componentType" : 5126,
            "count" : 10199,
            "type" : "VEC3"
        },
        {
            "bufferView" : 2,
            "componentType" : 5126,
            "count" : 10199,
            "type" : "VEC2"
        },
        {
            "bufferView" : 3,
            "componentType" : 5123,
            "count" : 59400,
            "type" : "SCALAR"
        }
    ],
    "bufferViews" : [
        {
            "buffer" : 0,
            "byteLength" : 122388,
            "byteOffset" : 0
        },
        {
            "buffer" : 0,
            "byteLength" : 122388,
            "byteOffset" : 122388
        },
        {
            "buffer" : 0,
            "byteLength" : 81592,
            "byteOffset" : 244776
        },
        {
            "buffer" : 0,
            "byteLength" : 118800,
            "byteOffset" : 326368
        }
    ],
    "buffers" : [
        {
            "byteLength" : 445168,
            "uri" : "Psphere_LOD_1.bin"
        }
    ]
}
