{
    "asset" : {
        "generator" : "Khronos glTF Blender I/O v1.6.16",
        "version" : "2.0"
    },
    "scene" : 0,
    "scenes" : [
        {
            "name" : "Scene",
            "nodes" : [
                0
            ]
        }
    ],
    "nodes" : [
        {
            "mesh" : 0,
            "name" : "LOD0"
        }
    ],
    "materials" : [
        {
            "doubleSided" : true,
            "name" : "LOD0_mat",
            "pbrMetallicRoughness" : {
                "baseColorFactor" : [
                    1,
                    0.003991265315562487,
                    0,
                    1
                ],
                "metallicFactor" : 0,
                "roughnessFactor" : 0.5
            }
        }
    ],
    "meshes" : [
        {
            "name" : "LOD0",
            "primitives" : [
                {
                    "attributes" : {
                        "POSITION" : 0,
                        "NORMAL" : 1,
                        "TEXCOORD_0" : 2
                    },
                    "indices" : 3,
                    "material" : 0
                }
            ]
        }
    ],
    "accessors" : [
        {
            "bufferView" : 0,
            "componentType" : 5126,
            "count" : 90599,
            "max" : [
                1.6575839519500732,
                1.9634791612625122,
                1.6632860898971558
            ],
            "min" : [
                -1.4283250570297241,
                -1.7366538047790527,
                -1.9631317853927612
            ],
            "type" : "VEC3"
        },
        {
            "bufferView" : 1,
            "componentType" : 5126,
            "count" : 90599,
            "type" : "VEC3"
        },
        {
            "bufferView" : 2,
            "componentType" : 5126,
            "count" : 90599,
            "type" : "VEC2"
        },
        {
            "bufferView" : 3,
            "componentType" : 5125,
            "count" : 538200,
            "type" : "SCALAR"
        }
    ],
    "bufferViews" : [
        {
            "buffer" : 0,
            "byteLength" : 1087188,
            "byteOffset" : 0
        },
        {
            "buffer" : 0,
            "byteLength" : 1087188,
            "byteOffset" : 1087188
        },
        {
            "buffer" : 0,
            "byteLength" : 724792,
            "byteOffset" : 2174376
        },
        {
            "buffer" : 0,
            "byteLength" : 2152800,
            "byteOffset" : 2899168
        }
    ],
    "buffers" : [
        {
            "byteLength" : 5051968,
            "uri" : "Psphere_LOD_0.bin"
        }
    ]
}
